<mxfile host="65bd71144e">
    <diagram id="C5RBs43oDa-KdzZeNtuy" name="Page-1">
        <mxGraphModel dx="725" dy="550" grid="1" gridSize="10" guides="1" tooltips="1" connect="1" arrows="1" fold="1" page="1" pageScale="1" pageWidth="827" pageHeight="1169" math="0" shadow="0">
            <root>
                <mxCell id="WIyWlLk6GJQsqaUBKTNV-0"/>
                <mxCell id="WIyWlLk6GJQsqaUBKTNV-1" parent="WIyWlLk6GJQsqaUBKTNV-0"/>
                <mxCell id="USiXtIitKo1ydzeFGayd-0" value="Funcionário&#10;" style="swimlane;fontStyle=1;align=center;verticalAlign=top;childLayout=stackLayout;horizontal=1;startSize=26;horizontalStack=0;resizeParent=1;resizeParentMax=0;resizeLast=0;collapsible=1;marginBottom=0;" parent="WIyWlLk6GJQsqaUBKTNV-1" vertex="1">
                    <mxGeometry x="320" width="160" height="292" as="geometry">
                        <mxRectangle x="330" y="70" width="110" height="30" as="alternateBounds"/>
                    </mxGeometry>
                </mxCell>
                <mxCell id="USiXtIitKo1ydzeFGayd-1" value="# nome: String" style="text;strokeColor=none;fillColor=none;align=left;verticalAlign=top;spacingLeft=4;spacingRight=4;overflow=hidden;rotatable=0;points=[[0,0.5],[1,0.5]];portConstraint=eastwest;" parent="USiXtIitKo1ydzeFGayd-0" vertex="1">
                    <mxGeometry y="26" width="160" height="26" as="geometry"/>
                </mxCell>
                <mxCell id="USiXtIitKo1ydzeFGayd-2" value="# endereco: String" style="text;strokeColor=none;fillColor=none;align=left;verticalAlign=top;spacingLeft=4;spacingRight=4;overflow=hidden;rotatable=0;points=[[0,0.5],[1,0.5]];portConstraint=eastwest;" parent="USiXtIitKo1ydzeFGayd-0" vertex="1">
                    <mxGeometry y="52" width="160" height="26" as="geometry"/>
                </mxCell>
                <mxCell id="USiXtIitKo1ydzeFGayd-3" value="# telefone: String" style="text;strokeColor=none;fillColor=none;align=left;verticalAlign=top;spacingLeft=4;spacingRight=4;overflow=hidden;rotatable=0;points=[[0,0.5],[1,0.5]];portConstraint=eastwest;" parent="USiXtIitKo1ydzeFGayd-0" vertex="1">
                    <mxGeometry y="78" width="160" height="26" as="geometry"/>
                </mxCell>
                <mxCell id="USiXtIitKo1ydzeFGayd-4" value="# cpf: String" style="text;strokeColor=none;fillColor=none;align=left;verticalAlign=top;spacingLeft=4;spacingRight=4;overflow=hidden;rotatable=0;points=[[0,0.5],[1,0.5]];portConstraint=eastwest;" parent="USiXtIitKo1ydzeFGayd-0" vertex="1">
                    <mxGeometry y="104" width="160" height="26" as="geometry"/>
                </mxCell>
                <mxCell id="USiXtIitKo1ydzeFGayd-5" value="# salario: Float" style="text;strokeColor=none;fillColor=none;align=left;verticalAlign=top;spacingLeft=4;spacingRight=4;overflow=hidden;rotatable=0;points=[[0,0.5],[1,0.5]];portConstraint=eastwest;" parent="USiXtIitKo1ydzeFGayd-0" vertex="1">
                    <mxGeometry y="130" width="160" height="26" as="geometry"/>
                </mxCell>
                <mxCell id="USiXtIitKo1ydzeFGayd-6" value="" style="line;strokeWidth=1;fillColor=none;align=left;verticalAlign=middle;spacingTop=-1;spacingLeft=3;spacingRight=3;rotatable=0;labelPosition=right;points=[];portConstraint=eastwest;strokeColor=inherit;" parent="USiXtIitKo1ydzeFGayd-0" vertex="1">
                    <mxGeometry y="156" width="160" height="8" as="geometry"/>
                </mxCell>
                <mxCell id="USiXtIitKo1ydzeFGayd-7" value="# cadastrar (): void" style="text;strokeColor=none;fillColor=none;align=left;verticalAlign=middle;spacingLeft=4;spacingRight=4;overflow=hidden;rotatable=0;points=[[0,0.5],[1,0.5]];portConstraint=eastwest;" parent="USiXtIitKo1ydzeFGayd-0" vertex="1">
                    <mxGeometry y="164" width="160" height="32" as="geometry"/>
                </mxCell>
                <mxCell id="MKlyk7NX3FUbt7fqFQiV-0" value="# consultar (nome) : string" style="text;strokeColor=none;fillColor=none;align=left;verticalAlign=middle;spacingLeft=4;spacingRight=4;overflow=hidden;rotatable=0;points=[[0,0.5],[1,0.5]];portConstraint=eastwest;" parent="USiXtIitKo1ydzeFGayd-0" vertex="1">
                    <mxGeometry y="196" width="160" height="32" as="geometry"/>
                </mxCell>
                <mxCell id="MKlyk7NX3FUbt7fqFQiV-1" value="# alterar (nome, endereco, &#10;telefone, cpf, salario)" style="text;strokeColor=none;fillColor=none;align=left;verticalAlign=middle;spacingLeft=4;spacingRight=4;overflow=hidden;rotatable=0;points=[[0,0.5],[1,0.5]];portConstraint=eastwest;" parent="USiXtIitKo1ydzeFGayd-0" vertex="1">
                    <mxGeometry y="228" width="160" height="32" as="geometry"/>
                </mxCell>
                <mxCell id="USiXtIitKo1ydzeFGayd-8" value="# excluir (nome): string" style="text;strokeColor=none;fillColor=none;align=left;verticalAlign=middle;spacingLeft=4;spacingRight=4;overflow=hidden;rotatable=0;points=[[0,0.5],[1,0.5]];portConstraint=eastwest;" parent="USiXtIitKo1ydzeFGayd-0" vertex="1">
                    <mxGeometry y="260" width="160" height="32" as="geometry"/>
                </mxCell>
                <mxCell id="USiXtIitKo1ydzeFGayd-15" value="Curso" style="swimlane;fontStyle=1;align=center;verticalAlign=top;childLayout=stackLayout;horizontal=1;startSize=26;horizontalStack=0;resizeParent=1;resizeParentMax=0;resizeLast=0;collapsible=1;marginBottom=0;" parent="WIyWlLk6GJQsqaUBKTNV-1" vertex="1">
                    <mxGeometry x="500" y="850" width="205" height="216" as="geometry"/>
                </mxCell>
                <mxCell id="USiXtIitKo1ydzeFGayd-16" value="+ código: string" style="text;strokeColor=none;fillColor=none;align=left;verticalAlign=top;spacingLeft=4;spacingRight=4;overflow=hidden;rotatable=0;points=[[0,0.5],[1,0.5]];portConstraint=eastwest;" parent="USiXtIitKo1ydzeFGayd-15" vertex="1">
                    <mxGeometry y="26" width="205" height="26" as="geometry"/>
                </mxCell>
                <mxCell id="USiXtIitKo1ydzeFGayd-17" value="+ nome: string" style="text;strokeColor=none;fillColor=none;align=left;verticalAlign=top;spacingLeft=4;spacingRight=4;overflow=hidden;rotatable=0;points=[[0,0.5],[1,0.5]];portConstraint=eastwest;" parent="USiXtIitKo1ydzeFGayd-15" vertex="1">
                    <mxGeometry y="52" width="205" height="26" as="geometry"/>
                </mxCell>
                <mxCell id="USiXtIitKo1ydzeFGayd-18" value="+ duração: double" style="text;strokeColor=none;fillColor=none;align=left;verticalAlign=top;spacingLeft=4;spacingRight=4;overflow=hidden;rotatable=0;points=[[0,0.5],[1,0.5]];portConstraint=eastwest;" parent="USiXtIitKo1ydzeFGayd-15" vertex="1">
                    <mxGeometry y="78" width="205" height="26" as="geometry"/>
                </mxCell>
                <mxCell id="USiXtIitKo1ydzeFGayd-19" value="" style="line;strokeWidth=1;fillColor=none;align=left;verticalAlign=middle;spacingTop=-1;spacingLeft=3;spacingRight=3;rotatable=0;labelPosition=right;points=[];portConstraint=eastwest;strokeColor=inherit;" parent="USiXtIitKo1ydzeFGayd-15" vertex="1">
                    <mxGeometry y="104" width="205" height="8" as="geometry"/>
                </mxCell>
                <mxCell id="MKlyk7NX3FUbt7fqFQiV-5" value="+ cadastrar(): void" style="text;strokeColor=none;fillColor=none;align=left;verticalAlign=top;spacingLeft=4;spacingRight=4;overflow=hidden;rotatable=0;points=[[0,0.5],[1,0.5]];portConstraint=eastwest;" parent="USiXtIitKo1ydzeFGayd-15" vertex="1">
                    <mxGeometry y="112" width="205" height="26" as="geometry"/>
                </mxCell>
                <mxCell id="CC_uCJZppHfZ0uQUJ4KG-4" value="+ consultar(nome): string" style="text;strokeColor=none;fillColor=none;align=left;verticalAlign=top;spacingLeft=4;spacingRight=4;overflow=hidden;rotatable=0;points=[[0,0.5],[1,0.5]];portConstraint=eastwest;" parent="USiXtIitKo1ydzeFGayd-15" vertex="1">
                    <mxGeometry y="138" width="205" height="26" as="geometry"/>
                </mxCell>
                <mxCell id="CC_uCJZppHfZ0uQUJ4KG-6" value="+ alterar(nome, codigo): void" style="text;strokeColor=none;fillColor=none;align=left;verticalAlign=middle;spacingLeft=4;spacingRight=4;overflow=hidden;rotatable=0;points=[[0,0.5],[1,0.5]];portConstraint=eastwest;" parent="USiXtIitKo1ydzeFGayd-15" vertex="1">
                    <mxGeometry y="164" width="205" height="26" as="geometry"/>
                </mxCell>
                <mxCell id="CC_uCJZppHfZ0uQUJ4KG-7" value="+ excluir(nome): string" style="text;strokeColor=none;fillColor=none;align=left;verticalAlign=top;spacingLeft=4;spacingRight=4;overflow=hidden;rotatable=0;points=[[0,0.5],[1,0.5]];portConstraint=eastwest;" parent="USiXtIitKo1ydzeFGayd-15" vertex="1">
                    <mxGeometry y="190" width="205" height="26" as="geometry"/>
                </mxCell>
                <mxCell id="USiXtIitKo1ydzeFGayd-20" value="Disciplina" style="swimlane;fontStyle=1;align=center;verticalAlign=top;childLayout=stackLayout;horizontal=1;startSize=26;horizontalStack=0;resizeParent=1;resizeParentMax=0;resizeLast=0;collapsible=1;marginBottom=0;" parent="WIyWlLk6GJQsqaUBKTNV-1" vertex="1">
                    <mxGeometry x="500" y="550" width="210" height="216" as="geometry"/>
                </mxCell>
                <mxCell id="USiXtIitKo1ydzeFGayd-21" value="+ código: string" style="text;strokeColor=none;fillColor=none;align=left;verticalAlign=top;spacingLeft=4;spacingRight=4;overflow=hidden;rotatable=0;points=[[0,0.5],[1,0.5]];portConstraint=eastwest;" parent="USiXtIitKo1ydzeFGayd-20" vertex="1">
                    <mxGeometry y="26" width="210" height="26" as="geometry"/>
                </mxCell>
                <mxCell id="USiXtIitKo1ydzeFGayd-22" value="+ nome: string" style="text;strokeColor=none;fillColor=none;align=left;verticalAlign=top;spacingLeft=4;spacingRight=4;overflow=hidden;rotatable=0;points=[[0,0.5],[1,0.5]];portConstraint=eastwest;" parent="USiXtIitKo1ydzeFGayd-20" vertex="1">
                    <mxGeometry y="52" width="210" height="26" as="geometry"/>
                </mxCell>
                <mxCell id="USiXtIitKo1ydzeFGayd-24" value="+ carga_horaria: double" style="text;strokeColor=none;fillColor=none;align=left;verticalAlign=top;spacingLeft=4;spacingRight=4;overflow=hidden;rotatable=0;points=[[0,0.5],[1,0.5]];portConstraint=eastwest;" parent="USiXtIitKo1ydzeFGayd-20" vertex="1">
                    <mxGeometry y="78" width="210" height="26" as="geometry"/>
                </mxCell>
                <mxCell id="USiXtIitKo1ydzeFGayd-25" value="" style="line;strokeWidth=1;fillColor=none;align=left;verticalAlign=middle;spacingTop=-1;spacingLeft=3;spacingRight=3;rotatable=0;labelPosition=right;points=[];portConstraint=eastwest;strokeColor=inherit;" parent="USiXtIitKo1ydzeFGayd-20" vertex="1">
                    <mxGeometry y="104" width="210" height="8" as="geometry"/>
                </mxCell>
                <mxCell id="CC_uCJZppHfZ0uQUJ4KG-5" value="+ cadastrar(): void" style="text;strokeColor=none;fillColor=none;align=left;verticalAlign=top;spacingLeft=4;spacingRight=4;overflow=hidden;rotatable=0;points=[[0,0.5],[1,0.5]];portConstraint=eastwest;" parent="USiXtIitKo1ydzeFGayd-20" vertex="1">
                    <mxGeometry y="112" width="210" height="26" as="geometry"/>
                </mxCell>
                <mxCell id="MKlyk7NX3FUbt7fqFQiV-6" value="+ consultar(nome): string" style="text;strokeColor=none;fillColor=none;align=left;verticalAlign=top;spacingLeft=4;spacingRight=4;overflow=hidden;rotatable=0;points=[[0,0.5],[1,0.5]];portConstraint=eastwest;" parent="USiXtIitKo1ydzeFGayd-20" vertex="1">
                    <mxGeometry y="138" width="210" height="26" as="geometry"/>
                </mxCell>
                <mxCell id="MKlyk7NX3FUbt7fqFQiV-7" value="+ alterar(carga_horaria,nome): void" style="text;strokeColor=none;fillColor=none;align=left;verticalAlign=middle;spacingLeft=4;spacingRight=4;overflow=hidden;rotatable=0;points=[[0,0.5],[1,0.5]];portConstraint=eastwest;" parent="USiXtIitKo1ydzeFGayd-20" vertex="1">
                    <mxGeometry y="164" width="210" height="26" as="geometry"/>
                </mxCell>
                <mxCell id="MKlyk7NX3FUbt7fqFQiV-4" value="+ excluir(nome): string" style="text;strokeColor=none;fillColor=none;align=left;verticalAlign=top;spacingLeft=4;spacingRight=4;overflow=hidden;rotatable=0;points=[[0,0.5],[1,0.5]];portConstraint=eastwest;" parent="USiXtIitKo1ydzeFGayd-20" vertex="1">
                    <mxGeometry y="190" width="210" height="26" as="geometry"/>
                </mxCell>
                <mxCell id="yz4Mkfd7ysu8Cjmk4n05-49" value="leciona" style="edgeStyle=orthogonalEdgeStyle;rounded=0;orthogonalLoop=1;jettySize=auto;html=1;startArrow=none;startFill=0;endArrow=none;endFill=0;" parent="WIyWlLk6GJQsqaUBKTNV-1" source="USiXtIitKo1ydzeFGayd-28" target="USiXtIitKo1ydzeFGayd-20" edge="1">
                    <mxGeometry x="-0.3462" relative="1" as="geometry">
                        <mxPoint as="offset"/>
                    </mxGeometry>
                </mxCell>
                <mxCell id="yz4Mkfd7ysu8Cjmk4n05-51" value="1, *" style="edgeLabel;html=1;align=center;verticalAlign=middle;resizable=0;points=[];" parent="yz4Mkfd7ysu8Cjmk4n05-49" vertex="1" connectable="0">
                    <mxGeometry x="0.8326" y="-1" relative="1" as="geometry">
                        <mxPoint x="1" y="-21" as="offset"/>
                    </mxGeometry>
                </mxCell>
                <mxCell id="USiXtIitKo1ydzeFGayd-28" value="Professor&#10;" style="swimlane;fontStyle=1;align=center;verticalAlign=top;childLayout=stackLayout;horizontal=1;startSize=26;horizontalStack=0;resizeParent=1;resizeParentMax=0;resizeLast=0;collapsible=1;marginBottom=0;" parent="WIyWlLk6GJQsqaUBKTNV-1" vertex="1">
                    <mxGeometry x="525" y="360" width="160" height="86" as="geometry">
                        <mxRectangle x="190" y="340" width="100" height="30" as="alternateBounds"/>
                    </mxGeometry>
                </mxCell>
                <mxCell id="USiXtIitKo1ydzeFGayd-29" value="+ titulacao: String" style="text;strokeColor=none;fillColor=none;align=left;verticalAlign=top;spacingLeft=4;spacingRight=4;overflow=hidden;rotatable=0;points=[[0,0.5],[1,0.5]];portConstraint=eastwest;" parent="USiXtIitKo1ydzeFGayd-28" vertex="1">
                    <mxGeometry y="26" width="160" height="26" as="geometry"/>
                </mxCell>
                <mxCell id="USiXtIitKo1ydzeFGayd-30" value="+ area_formacao: String" style="text;strokeColor=none;fillColor=none;align=left;verticalAlign=top;spacingLeft=4;spacingRight=4;overflow=hidden;rotatable=0;points=[[0,0.5],[1,0.5]];portConstraint=eastwest;" parent="USiXtIitKo1ydzeFGayd-28" vertex="1">
                    <mxGeometry y="52" width="160" height="26" as="geometry"/>
                </mxCell>
                <mxCell id="USiXtIitKo1ydzeFGayd-31" value="" style="line;strokeWidth=1;fillColor=none;align=left;verticalAlign=middle;spacingTop=-1;spacingLeft=3;spacingRight=3;rotatable=0;labelPosition=right;points=[];portConstraint=eastwest;strokeColor=inherit;" parent="USiXtIitKo1ydzeFGayd-28" vertex="1">
                    <mxGeometry y="78" width="160" height="8" as="geometry"/>
                </mxCell>
                <mxCell id="USiXtIitKo1ydzeFGayd-34" value="Técnico Administrativo" style="swimlane;fontStyle=1;align=center;verticalAlign=top;childLayout=stackLayout;horizontal=1;startSize=26;horizontalStack=0;resizeParent=1;resizeParentMax=0;resizeLast=0;collapsible=1;marginBottom=0;" parent="WIyWlLk6GJQsqaUBKTNV-1" vertex="1">
                    <mxGeometry x="65" y="360" width="160" height="34" as="geometry">
                        <mxRectangle x="470" y="340" width="170" height="30" as="alternateBounds"/>
                    </mxGeometry>
                </mxCell>
                <mxCell id="USiXtIitKo1ydzeFGayd-35" value="" style="line;strokeWidth=1;fillColor=none;align=left;verticalAlign=middle;spacingTop=-1;spacingLeft=3;spacingRight=3;rotatable=0;labelPosition=right;points=[];portConstraint=eastwest;strokeColor=inherit;" parent="USiXtIitKo1ydzeFGayd-34" vertex="1">
                    <mxGeometry y="26" width="160" height="8" as="geometry"/>
                </mxCell>
                <mxCell id="yz4Mkfd7ysu8Cjmk4n05-7" value="Aluno" style="swimlane;fontStyle=1;align=center;verticalAlign=top;childLayout=stackLayout;horizontal=1;startSize=26;horizontalStack=0;resizeParent=1;resizeParentMax=0;resizeLast=0;collapsible=1;marginBottom=0;" parent="WIyWlLk6GJQsqaUBKTNV-1" vertex="1">
                    <mxGeometry x="40" y="540" width="210" height="242" as="geometry"/>
                </mxCell>
                <mxCell id="yz4Mkfd7ysu8Cjmk4n05-8" value="+ nome: string" style="text;strokeColor=none;fillColor=none;align=left;verticalAlign=top;spacingLeft=4;spacingRight=4;overflow=hidden;rotatable=0;points=[[0,0.5],[1,0.5]];portConstraint=eastwest;" parent="yz4Mkfd7ysu8Cjmk4n05-7" vertex="1">
                    <mxGeometry y="26" width="210" height="26" as="geometry"/>
                </mxCell>
                <mxCell id="yz4Mkfd7ysu8Cjmk4n05-10" value="+ matricula: int " style="text;strokeColor=none;fillColor=none;align=left;verticalAlign=top;spacingLeft=4;spacingRight=4;overflow=hidden;rotatable=0;points=[[0,0.5],[1,0.5]];portConstraint=eastwest;" parent="yz4Mkfd7ysu8Cjmk4n05-7" vertex="1">
                    <mxGeometry y="52" width="210" height="26" as="geometry"/>
                </mxCell>
                <mxCell id="yz4Mkfd7ysu8Cjmk4n05-12" value="+ cpf: string" style="text;strokeColor=none;fillColor=none;align=left;verticalAlign=top;spacingLeft=4;spacingRight=4;overflow=hidden;rotatable=0;points=[[0,0.5],[1,0.5]];portConstraint=eastwest;" parent="yz4Mkfd7ysu8Cjmk4n05-7" vertex="1">
                    <mxGeometry y="78" width="210" height="26" as="geometry"/>
                </mxCell>
                <mxCell id="yz4Mkfd7ysu8Cjmk4n05-13" value="+ curso: string" style="text;strokeColor=none;fillColor=none;align=left;verticalAlign=top;spacingLeft=4;spacingRight=4;overflow=hidden;rotatable=0;points=[[0,0.5],[1,0.5]];portConstraint=eastwest;" parent="yz4Mkfd7ysu8Cjmk4n05-7" vertex="1">
                    <mxGeometry y="104" width="210" height="26" as="geometry"/>
                </mxCell>
                <mxCell id="yz4Mkfd7ysu8Cjmk4n05-11" value="" style="line;strokeWidth=1;fillColor=none;align=left;verticalAlign=middle;spacingTop=-1;spacingLeft=3;spacingRight=3;rotatable=0;labelPosition=right;points=[];portConstraint=eastwest;strokeColor=inherit;" parent="yz4Mkfd7ysu8Cjmk4n05-7" vertex="1">
                    <mxGeometry y="130" width="210" height="8" as="geometry"/>
                </mxCell>
                <mxCell id="CC_uCJZppHfZ0uQUJ4KG-0" value="+ cadastrar(): void" style="text;strokeColor=none;fillColor=none;align=left;verticalAlign=top;spacingLeft=4;spacingRight=4;overflow=hidden;rotatable=0;points=[[0,0.5],[1,0.5]];portConstraint=eastwest;" parent="yz4Mkfd7ysu8Cjmk4n05-7" vertex="1">
                    <mxGeometry y="138" width="210" height="26" as="geometry"/>
                </mxCell>
                <mxCell id="CC_uCJZppHfZ0uQUJ4KG-1" value="+ consultar(nome): string" style="text;strokeColor=none;fillColor=none;align=left;verticalAlign=top;spacingLeft=4;spacingRight=4;overflow=hidden;rotatable=0;points=[[0,0.5],[1,0.5]];portConstraint=eastwest;" parent="yz4Mkfd7ysu8Cjmk4n05-7" vertex="1">
                    <mxGeometry y="164" width="210" height="26" as="geometry"/>
                </mxCell>
                <mxCell id="CC_uCJZppHfZ0uQUJ4KG-2" value="+ alterar(nome, cpg): void" style="text;strokeColor=none;fillColor=none;align=left;verticalAlign=middle;spacingLeft=4;spacingRight=4;overflow=hidden;rotatable=0;points=[[0,0.5],[1,0.5]];portConstraint=eastwest;" parent="yz4Mkfd7ysu8Cjmk4n05-7" vertex="1">
                    <mxGeometry y="190" width="210" height="26" as="geometry"/>
                </mxCell>
                <mxCell id="CC_uCJZppHfZ0uQUJ4KG-3" value="+ excluir(nome): string" style="text;strokeColor=none;fillColor=none;align=left;verticalAlign=top;spacingLeft=4;spacingRight=4;overflow=hidden;rotatable=0;points=[[0,0.5],[1,0.5]];portConstraint=eastwest;" parent="yz4Mkfd7ysu8Cjmk4n05-7" vertex="1">
                    <mxGeometry y="216" width="210" height="26" as="geometry"/>
                </mxCell>
                <mxCell id="MKlyk7NX3FUbt7fqFQiV-9" value="" style="endArrow=block;endSize=16;endFill=0;html=1;rounded=0;exitX=0.5;exitY=0;exitDx=0;exitDy=0;edgeStyle=orthogonalEdgeStyle;" parent="WIyWlLk6GJQsqaUBKTNV-1" source="USiXtIitKo1ydzeFGayd-34" target="USiXtIitKo1ydzeFGayd-0" edge="1">
                    <mxGeometry width="160" relative="1" as="geometry">
                        <mxPoint x="400" y="360" as="sourcePoint"/>
                        <mxPoint x="240" y="200" as="targetPoint"/>
                        <Array as="points">
                            <mxPoint x="145" y="330"/>
                            <mxPoint x="400" y="330"/>
                        </Array>
                    </mxGeometry>
                </mxCell>
                <mxCell id="MKlyk7NX3FUbt7fqFQiV-10" value="" style="endArrow=block;endSize=16;endFill=0;html=1;rounded=0;edgeStyle=orthogonalEdgeStyle;" parent="WIyWlLk6GJQsqaUBKTNV-1" source="USiXtIitKo1ydzeFGayd-28" target="USiXtIitKo1ydzeFGayd-0" edge="1">
                    <mxGeometry width="160" relative="1" as="geometry">
                        <mxPoint x="640" y="240" as="sourcePoint"/>
                        <mxPoint x="400" y="290" as="targetPoint"/>
                        <Array as="points">
                            <mxPoint x="605" y="330"/>
                            <mxPoint x="400" y="330"/>
                        </Array>
                    </mxGeometry>
                </mxCell>
                <mxCell id="MKlyk7NX3FUbt7fqFQiV-11" value="" style="endArrow=diamondThin;endFill=0;endSize=24;html=1;rounded=0;exitX=0.494;exitY=0.981;exitDx=0;exitDy=0;exitPerimeter=0;entryX=0.5;entryY=0;entryDx=0;entryDy=0;" parent="WIyWlLk6GJQsqaUBKTNV-1" source="MKlyk7NX3FUbt7fqFQiV-4" target="USiXtIitKo1ydzeFGayd-15" edge="1">
                    <mxGeometry width="160" relative="1" as="geometry">
                        <mxPoint x="590" y="830" as="sourcePoint"/>
                        <mxPoint x="750" y="830" as="targetPoint"/>
                    </mxGeometry>
                </mxCell>
                <mxCell id="MKlyk7NX3FUbt7fqFQiV-12" value="1..*" style="edgeLabel;html=1;align=center;verticalAlign=middle;resizable=0;points=[];" parent="MKlyk7NX3FUbt7fqFQiV-11" vertex="1" connectable="0">
                    <mxGeometry x="-0.6926" y="-1" relative="1" as="geometry">
                        <mxPoint as="offset"/>
                    </mxGeometry>
                </mxCell>
                <mxCell id="MKlyk7NX3FUbt7fqFQiV-20" value="" style="endArrow=none;html=1;rounded=0;fontSize=11;exitX=0.5;exitY=1;exitDx=0;exitDy=0;entryX=0.5;entryY=0;entryDx=0;entryDy=0;" parent="WIyWlLk6GJQsqaUBKTNV-1" source="USiXtIitKo1ydzeFGayd-34" target="yz4Mkfd7ysu8Cjmk4n05-7" edge="1">
                    <mxGeometry relative="1" as="geometry">
                        <mxPoint x="171.27999999999997" y="426.832" as="sourcePoint"/>
                        <mxPoint x="290" y="570" as="targetPoint"/>
                    </mxGeometry>
                </mxCell>
                <mxCell id="1" value="" style="endArrow=none;html=1;edgeStyle=orthogonalEdgeStyle;rounded=0;" parent="WIyWlLk6GJQsqaUBKTNV-1" source="yz4Mkfd7ysu8Cjmk4n05-7" target="USiXtIitKo1ydzeFGayd-20" edge="1">
                    <mxGeometry relative="1" as="geometry">
                        <mxPoint x="290" y="750" as="sourcePoint"/>
                        <mxPoint x="450" y="750" as="targetPoint"/>
                    </mxGeometry>
                </mxCell>
                <mxCell id="5" value="matricula" style="edgeLabel;html=1;align=center;verticalAlign=middle;resizable=0;points=[];" parent="1" vertex="1" connectable="0">
                    <mxGeometry x="0.0743" relative="1" as="geometry">
                        <mxPoint as="offset"/>
                    </mxGeometry>
                </mxCell>
                <mxCell id="6" value="0..*" style="edgeLabel;html=1;align=center;verticalAlign=middle;resizable=0;points=[];" parent="1" vertex="1" connectable="0">
                    <mxGeometry x="0.9209" y="1" relative="1" as="geometry">
                        <mxPoint as="offset"/>
                    </mxGeometry>
                </mxCell>
                <mxCell id="7" value="1..*" style="edgeLabel;html=1;align=center;verticalAlign=middle;resizable=0;points=[];" parent="1" vertex="1" connectable="0">
                    <mxGeometry x="-0.9105" y="2" relative="1" as="geometry">
                        <mxPoint as="offset"/>
                    </mxGeometry>
                </mxCell>
            </root>
        </mxGraphModel>
    </diagram>
</mxfile>